# xmcd
#
# Track frame offsets:
#   300
#   15389
#   34177
#   52168
#   71185
#   88747
#   108572
#   127064
#   146532
#   166282
#   184004
#   201693
#   218804
#
# Disc length: 3103 seconds
#
# Revision: 0
# Processed by: cddbd v1.5.2PL0 Copyright (c) Steve Scherf et al.
# Submitted via: GXTranscoder 2.0.1939
#
DISCID=cc0c1b0d
DTITLE=Simply Red - 25
DYEAR=1900
DGENRE=Blues
TTITLE0=Sunrise
TTITLE1=Stars
TTITLE2=A new flame
TTITLE3=holding back the years
TTITLE4=it´s only love
TTITLE5=the right thing
TTITLE6=your mirror
TTITLE7=for your babies
TTITLE8=the air that i breathe
TTITLE9=night nurse
TTITLE10=ain´t that a lot of love
TTITLE11=fake
TTITLE12=ev´ry time we say goodbye
EXTD=
EXTT0=
EXTT1=
EXTT2=
EXTT3=
EXTT4=
EXTT5=
EXTT6=
EXTT7=
EXTT8=
EXTT9=
EXTT10=
EXTT11=
EXTT12=
PLAYORDER=
